<svg xmlns="http://www.w3.org/2000/svg" xmlns:xlink="http://www.w3.org/1999/xlink" viewBox="0 0 46 46"><path d="M 0 0.3 L 46 0.3 L 46 46.3 L 0 46.3 Z" fill="transparent"></path><path d="M 22.993 23.007 C 22.993 19.837 25.564 17.254 28.747 17.254 C 31.917 17.254 34.5 19.824 34.5 23.007 C 34.5 26.176 31.93 28.759 28.747 28.759 C 25.577 28.759 22.993 26.176 22.993 23.007 Z" fill="rgb(26,188,254)"></path><path d="M 11.5 34.498 C 11.5 31.328 14.07 28.746 17.253 28.746 L 23.007 28.746 L 23.007 34.498 C 23.007 37.667 20.436 40.25 17.253 40.25 C 14.07 40.25 11.5 37.68 11.5 34.498 Z" fill="rgb(10,207,131)"></path><path d="M 22.993 5.763 L 22.993 17.254 L 28.747 17.254 C 31.917 17.254 34.5 14.685 34.5 11.502 C 34.5 8.333 31.93 5.75 28.747 5.75 L 22.993 5.75 Z" fill="rgb(255,114,98)"></path><path d="M 11.5 11.515 C 11.5 14.685 14.07 17.267 17.253 17.267 L 23.007 17.267 L 23.007 5.763 L 17.253 5.763 C 14.07 5.763 11.5 8.333 11.5 11.515 Z" fill="rgb(242,78,30)"></path><path d="M 11.5 23.007 C 11.5 26.176 14.07 28.759 17.253 28.759 L 23.007 28.759 L 23.007 17.254 L 17.253 17.254 C 14.07 17.254 11.5 19.837 11.5 23.007 Z" fill="rgb(162,89,255)"></path></svg>