<svg xmlns="http://www.w3.org/2000/svg" xmlns:xlink="http://www.w3.org/1999/xlink" viewBox="0 0 24 24"><path d="M 0 0 L 24 0 L 24 24 L 0 24 Z" fill="transparent"></path><path d="M 21.908 22 L 21.908 21.999 L 21.913 21.999 L 21.913 14.664 C 21.913 11.076 21.14 8.312 16.945 8.312 C 14.929 8.312 13.575 9.418 13.023 10.467 L 12.964 10.467 L 12.964 8.647 L 8.987 8.647 L 8.987 21.999 L 13.129 21.999 L 13.129 15.387 C 13.129 13.647 13.459 11.963 15.614 11.963 C 17.739 11.963 17.77 13.95 17.77 15.499 L 17.77 22 Z M 2.243 8.648 L 6.389 8.648 L 6.389 22 L 2.243 22 Z M 4.314 2 C 2.989 2 1.913 3.076 1.913 4.402 C 1.913 5.728 2.989 6.826 4.314 6.826 C 5.64 6.826 6.716 5.728 6.716 4.402 C 6.715 3.076 5.64 2.001 4.314 2 Z" fill="rgb(0,0,0)"></path></svg>